<svg enable-background="new 0 0 256 256" height="512" viewBox="0 0 256 256" width="512" xmlns="http://www.w3.org/2000/svg"><circle cx="128" cy="128" fill="#382b73" r="120"/><circle cx="128" cy="128" fill="#473080" r="102.5"/><g fill="#382b73"><path d="m118.229 161.038c-.064-.578-.149-1.15-.261-1.712-.019-.096-.043-.19-.064-.285-.111-.513-.241-1.019-.39-1.517-.027-.09-.05-.181-.079-.271-.17-.538-.365-1.065-.579-1.582-.048-.117-.099-.232-.149-.347-.228-.522-.469-1.037-.74-1.535-.006-.012-.014-.023-.021-.035-.267-.489-.56-.961-.865-1.425-.069-.104-.137-.209-.208-.312-.311-.453-.639-.894-.985-1.318-.065-.079-.133-.155-.199-.233-.321-.381-.656-.75-1.005-1.105-.067-.068-.131-.139-.199-.207-.389-.385-.795-.751-1.215-1.104-.099-.083-.199-.164-.299-.245-.433-.349-.875-.688-1.337-1v.001c-2.427-1.644-5.244-2.741-8.276-3.175l-.007-.02c-.189-.027-.38-.046-.57-.068-.11-.012-.218-.029-.328-.039-.356-.035-.715-.061-1.075-.073l.009-.024-5.997-2.584v-4.735s.055-.018 0 0c4.24-1.363 7.493-4.496 9.179-8.581.255-.25.491-.517.732-.781.137.012.271.035.41.035 2.69 0 4.87-2.18 4.87-4.87 0-1.048-.338-2.012-.901-2.807.558-1.838.864-3.786.864-5.807 0-.673-.036-1.338-.101-1.995 0 0 .001 0 .001-.001 0-.004-.001-.008-.002-.012-.021-.21-.064-.412-.091-.62-.058-.437-.113-.875-.199-1.303-.053-.266-.129-.523-.192-.785-.087-.36-.17-.722-.276-1.074-.083-.273-.185-.536-.278-.804-.115-.33-.227-.66-.359-.981-.11-.268-.236-.526-.358-.788-.143-.308-.283-.616-.441-.915-.135-.257-.283-.505-.43-.755-.168-.289-.338-.577-.52-.856-.159-.243-.327-.478-.496-.713-.194-.27-.389-.538-.596-.797-.18-.227-.367-.446-.557-.665-.218-.25-.439-.497-.669-.736-.2-.208-.404-.411-.612-.61-.241-.23-.487-.454-.739-.672-.217-.188-.436-.372-.661-.55-.263-.209-.533-.408-.807-.604-.232-.166-.464-.33-.703-.485-.286-.186-.579-.36-.875-.531-.243-.141-.485-.283-.735-.415-.309-.162-.626-.309-.945-.455-.252-.116-.501-.236-.759-.341-.334-.137-.677-.254-1.02-.373-.255-.088-.506-.184-.766-.262-.366-.11-.742-.197-1.117-.287-.248-.059-.492-.129-.744-.179-.423-.084-.856-.14-1.288-.197-.213-.028-.421-.07-.636-.091-.652-.064-1.312-.1-1.982-.1-.634 0-1.258.037-1.876.095-.195.018-.385.048-.579.072-.425.052-.847.114-1.263.193-.215.041-.428.085-.64.133-.344.077-.685.162-1.022.257 0-.003-.001-.006-.001-.009-.075.021-.147.05-.222.072-.176.052-.353.101-.528.157-.215.069-.427.145-.639.221-.146.053-.29.111-.435.167-.096.037-.194.072-.29.111-.106.043-.215.078-.32.123-.148.063-.291.137-.438.203-.145.066-.287.136-.43.206-.244.118-.49.232-.728.36-.106.057-.209.119-.314.178-.126.07-.249.146-.373.219-.283.167-.564.336-.838.516-.176.116-.347.237-.519.357-.157.111-.322.212-.476.327.001.008.003.015.003.023-.209.156-.422.306-.624.47-.203.164-.393.341-.589.513-.249.218-.496.437-.734.667-.192.186-.376.378-.561.572-.228.239-.449.482-.665.732-.17.197-.338.395-.5.598-.221.277-.43.562-.635.85-.136.191-.277.378-.407.574-.266.402-.515.816-.752 1.237-.053.094-.113.182-.164.276-.279.514-.53 1.044-.763 1.584-.08.184-.147.375-.221.562-.149.375-.29.753-.417 1.138-.071.217-.134.436-.197.656-.108.374-.205.751-.292 1.134-.051.224-.1.447-.143.674-.078.412-.138.829-.191 1.25-.025.199-.057.395-.075.596-.059.623-.095 1.251-.095 1.889 0 .588.036 1.166.088 1.74.018.205.039.409.063.612.013.107.019.217.033.324.005-.001.01-.003.016-.005.144 1.073.358 2.124.665 3.135-.563.794-.901 1.759-.901 2.807 0 2.69 2.18 4.87 4.87 4.87.14 0 .274-.023.411-.035.241.263.477.53.732.78.766 1.857 1.887 3.532 3.286 4.93.684.684 1.433 1.303 2.238 1.846.402.272.818.524 1.247.757.816.443 1.511.759 2.409 1.047-.056-.018 0 0 0 0v2.882 1.853l-2.998 1.292-2.999 1.292.009.024c-.361.012-.719.038-1.075.073-.111.011-.22.027-.33.04-.19.022-.38.041-.569.068l-.007.02c-3.032.434-5.849 1.531-8.276 3.175v-.001c-.462.313-.905.652-1.338 1.001-.1.081-.199.161-.297.243-.42.353-.827.719-1.216 1.104-.068.067-.132.138-.199.207-.349.356-.684.725-1.006 1.107-.065.077-.133.152-.197.231-.347.425-.675.866-.986 1.319-.071.103-.138.207-.207.311-.307.465-.601.939-.869 1.43-.005.01-.012.019-.017.029-.271.499-.513 1.015-.741 1.539-.05.114-.1.228-.147.343-.214.518-.41 1.045-.58 1.584-.028.089-.051.18-.078.27-.15.498-.28 1.004-.39 1.518-.021.095-.044.189-.064.285-.112.562-.198 1.134-.261 1.712-.014.126-.025.253-.036.381-.054.598-.092 1.2-.092 1.812v9.102c0 2.398 1.944 4.342 4.342 4.342h50.845c2.398 0 4.342-1.944 4.342-4.342v-9.102c0-.612-.037-1.215-.091-1.812-.013-.127-.024-.254-.038-.38z"/><path d="m141.515 126.753c-.026-.101-.058-.199-.092-.297-.528-1.592-2.011-2.748-3.78-2.748h-19.286c-1.77 0-3.253 1.157-3.781 2.749-.033.097-.066.195-.092.295-.023.092-.043.183-.059.278-.04.221-.068.446-.068.678 0 2.209 1.79 4 4 4h19.286c2.209 0 4-1.791 4-4 0-.233-.028-.458-.068-.679-.017-.093-.037-.185-.06-.276z"/><path d="m141.515 141.336c-.026-.101-.058-.199-.092-.297-.528-1.592-2.011-2.748-3.78-2.748h-19.286c-1.77 0-3.253 1.157-3.781 2.749-.033.097-.066.195-.092.295-.023.092-.043.184-.059.278-.04.221-.068.446-.068.678 0 2.209 1.79 4 4 4h19.286c2.209 0 4-1.791 4-4 0-.233-.028-.458-.068-.679-.017-.093-.037-.184-.06-.276z"/><path d="m203.25 134.666c0-15.778-12.791-28.568-28.569-28.568s-28.569 12.791-28.569 28.568c0 .74.037 1.472.093 2.198-.055.726-.093 1.457-.093 2.198 0 15.778 12.791 28.569 28.569 28.569s28.569-12.791 28.569-28.569c0-.74-.037-1.471-.093-2.198.056-.726.093-1.458.093-2.198z"/></g><path d="m114.015 169.675h-50.846c-2.398 0-4.342-1.944-4.342-4.342v-9.102c0-10.949 8.876-19.825 19.825-19.825h19.88c10.949 0 19.825 8.876 19.825 19.825v9.102c0 2.398-1.944 4.342-4.342 4.342z" fill="#1caee4"/><path d="m109.635 139.804v29.871h4.38c2.398 0 4.342-1.944 4.342-4.342v-9.102c0-6.835-3.459-12.862-8.722-16.427z" fill="#009add"/><path d="m99.386 136.406-5.997-2.585.001 2.585-4.798 7.476-4.797-7.476v-2.585l-5.997 2.585 10.794 29.289z" fill="#d1d3d4"/><path d="m77.798 136.406 4.533 12.286c.183.495.817.635 1.191.261l5.071-5.071-4.797-7.476v-2.584z" fill="#fff"/><path d="m99.386 136.406-4.533 12.286c-.183.495-.817.635-1.191.261l-5.071-5.071 4.797-7.476v-2.584z" fill="#fff"/><path d="m88.592 129.864c-1.677 0-3.29-.273-4.797-.777v5.261 2.058l4.797 7.476 4.797-7.476v-.794-6.526c-1.507.504-3.12.778-4.797.778z" fill="#e6e7e8"/><path d="m92.608 147.898-2.992 2.992c-.565.565-1.482.565-2.047 0l-2.992-2.992 4.016-4.016z" fill="#1caee4"/><path d="m89.616 150.89c-.565.565-1.482.565-2.047 0l-1.026-1.026-.889 7.857 2.938 7.976 2.938-7.976-.889-7.857z" fill="#009add"/><path d="m74.434 149.271 2.553-2.251c.472-.416.224-1.196-.402-1.263l-2.998-.32c-.467-.05-.764-.525-.603-.966l2.848-7.86c.651-.094 1.31-.159 1.976-.181l10.784 29.268-14.211-15.393c-.276-.299-.252-.766.053-1.034z" fill="#27c1e6"/><path d="m102.75 149.271-2.553-2.251c-.472-.416-.224-1.196.402-1.263l2.998-.32c.467-.05.764-.525.604-.966l-2.848-7.86c-.651-.094-1.31-.159-1.976-.181l-10.784 29.268 14.211-15.393c.275-.299.251-.766-.054-1.034z" fill="#27c1e6"/><path d="m106.211 163.659h-9.771c-.562 0-1.018.456-1.018 1.018s.456 1.018 1.018 1.018h9.771c.562 0 1.018-.456 1.018-1.018-.001-.562-.456-1.018-1.018-1.018z" fill="#27c1e6"/><path d="m67.549 169.675v-29.871c-5.263 3.564-8.723 9.591-8.723 16.426v9.102c0 2.398 1.944 4.342 4.343 4.342h4.38z" fill="#009add"/><ellipse cx="88.592" cy="106.277" fill="#009add" rx="19.952" ry="19.952" transform="matrix(.707 -.707 .707 .707 -49.201 93.772)"/><path d="m88.592 129.864c-8.35 0-15.119-6.769-15.119-15.119v-7.85c0-8.35 6.769-15.119 15.119-15.119s15.119 6.769 15.119 15.119v7.85c0 8.35-6.769 15.119-15.119 15.119z" fill="#fff"/><path d="m88.592 129.864c-1.677 0-3.29-.273-4.797-.777v2.882c1.509.505 3.118.79 4.797.79s3.288-.285 4.797-.79v-2.882c-1.507.503-3.12.777-4.797.777z" fill="#d1d3d4"/><path d="m73.473 114.745v-4.725c-2.69 0-4.87 2.18-4.87 4.87s2.18 4.87 4.87 4.87c.282 0 .558-.024.827-.07-.535-1.55-.827-3.213-.827-4.945z" fill="#fff"/><path d="m103.711 110.02v4.725c0 1.732-.292 3.396-.828 4.945.269.046.545.07.828.07 2.69 0 4.87-2.18 4.87-4.87 0-2.689-2.181-4.87-4.87-4.87z" fill="#fff"/><g fill="#e6e7e8"><path d="m88.592 127.693c-8.35 0-15.119-6.769-15.119-15.119v2.171c0 8.35 6.769 15.119 15.119 15.119s15.119-6.769 15.119-15.119v-2.171c0 8.35-6.769 15.119-15.119 15.119z"/><path d="m73.473 106.895v2.978c5.91-3.445 9.89-9.832 9.919-17.159-5.784 2.122-9.919 7.661-9.919 14.181z"/><path d="m96.515 110.411c2.54 0 4.962-.489 7.196-1.354v-2.162c0-8.35-6.769-15.119-15.119-15.119-4.371 0-8.297 1.866-11.057 4.832 2.593 8.009 10.107 13.803 18.98 13.803z"/></g><path d="m76.662 90.283c1.001 10.082 9.507 17.957 19.853 17.957 4.473 0 8.602-1.472 11.93-3.958-1.001-10.082-9.507-17.957-19.853-17.957-4.473 0-8.602 1.472-11.93 3.958z" fill="#1caee4"/><path d="m68.64 106.277c0 .908.066 1.8.184 2.676 8.404-2.349 14.571-10.058 14.571-19.212 0-.908-.066-1.8-.184-2.676-8.404 2.349-14.571 10.058-14.571 19.212z" fill="#009add"/><path d="m83.991 112.764c0 1.012-.82 1.832-1.832 1.832s-1.832-.82-1.832-1.832.82-1.832 1.832-1.832c1.012.001 1.832.821 1.832 1.832z" fill="#1caee4"/><path d="m98.201 112.764c0 1.012-.82 1.832-1.832 1.832s-1.832-.82-1.832-1.832.82-1.832 1.832-1.832c1.012.001 1.832.821 1.832 1.832z" fill="#1caee4"/><path d="m73.473 114.745v-2.653c-1.546 0-2.799 1.253-2.799 2.799 0 1.545 1.253 2.798 2.799 2.798.098 0 .191-.019.287-.029-.184-.944-.287-1.917-.287-2.915z" fill="#e6e7e8"/><path d="m103.725 114.745v-2.653c1.546 0 2.798 1.253 2.798 2.799 0 1.545-1.253 2.798-2.798 2.798-.098 0-.191-.019-.287-.029.185-.944.287-1.917.287-2.915z" fill="#e6e7e8"/><path d="m137.643 124.708h-19.286c-2.21 0-4-1.791-4-4s1.79-4 4-4h19.286c2.209 0 4 1.791 4 4s-1.791 4-4 4z" fill="#fff"/><path d="m137.643 120.708h-19.286c-1.477 0-2.753-.809-3.445-2-.344.59-.555 1.268-.555 2 0 2.209 1.79 4 4 4h19.286c2.209 0 4-1.791 4-4 0-.732-.211-1.41-.555-2-.693 1.191-1.968 2-3.445 2z" fill="#d1d3d4"/><path d="m137.643 139.292h-19.286c-2.21 0-4-1.791-4-4s1.79-4 4-4h19.286c2.209 0 4 1.791 4 4s-1.791 4-4 4z" fill="#fff"/><path d="m137.643 135.292h-19.286c-1.477 0-2.753-.809-3.445-2-.344.59-.555 1.268-.555 2 0 2.209 1.79 4 4 4h19.286c2.209 0 4-1.791 4-4 0-.732-.211-1.41-.555-2-.693 1.19-1.968 2-3.445 2z" fill="#d1d3d4"/><circle cx="174.681" cy="132.061" fill="#e7ad27" r="28.569"/><circle cx="174.681" cy="127.666" fill="#fede3a" r="28.569"/><ellipse cx="174.681" cy="127.666" fill="#f7cb15" rx="21.426" ry="21.426" transform="matrix(.707 -.707 .707 .707 -39.111 160.911)"/><path d="m174.681 107.827c11.566 0 20.965 9.17 21.386 20.633.01-.266.04-.526.04-.794 0-11.833-9.593-21.426-21.426-21.426s-21.426 9.593-21.426 21.426c0 .268.03.528.04.794.421-11.463 9.821-20.633 21.386-20.633z" fill="#e7ad27"/><path d="m183.681 134.017c0-1.387-.277-2.613-.822-3.643-.545-1.028-1.364-1.921-2.436-2.656-1.01-.692-2.532-1.378-4.652-2.098-2.251-.765-3.287-1.448-3.761-1.887-.41-.379-.662-.879-.767-1.513.117-.691.409-1.25.884-1.696.658-.617 1.599-.917 2.878-.917 1.219 0 2.138.371 2.809 1.133.715.811 1.062 1.918 1.062 3.384v1.298h4.619v-1.298c0-.059-.01-.109-.011-.167h.011v-1.298c0-2.557-.654-4.636-1.942-6.181-1.087-1.302-2.541-2.147-4.332-2.521v-2.149-1.465h-4.33v1.465 2.135c-1.719.33-3.145 1.063-4.251 2.185-1.376 1.396-2.074 3.216-2.074 5.409 0 .26.04.499.06.748-.018.24-.06.467-.06.717 0 2.088.638 3.83 1.896 5.179 1.199 1.284 3.145 2.337 5.914 3.206 2.33.807 3.372 1.518 3.835 1.971.401.392.648.868.76 1.435-.133.65-.455 1.182-.99 1.637-.78.662-1.793.984-3.096.984-1.51 0-2.627-.372-3.414-1.138-.776-.755-1.154-1.811-1.154-3.227v-1.298h-4.636v1.298c0 .059.012.109.013.167h-.013v1.298c0 2.572.752 4.652 2.236 6.183 1.235 1.274 2.887 2.082 4.922 2.408v1.886 1.465h4.313v-1.465-1.922c1.786-.323 3.262-1.048 4.397-2.161 1.414-1.387 2.132-3.212 2.132-5.424 0-.313-.019-.616-.047-.912.011-.189.047-.362.047-.555z" fill="#e7ad27"/><path d="m182.859 130.374c-.545-1.028-1.365-1.921-2.436-2.656-1.01-.692-2.532-1.378-4.652-2.098-2.251-.765-3.287-1.448-3.761-1.887-.555-.514-.825-1.247-.825-2.24 0-1.043.308-1.839.942-2.434.658-.617 1.599-.917 2.878-.917 1.219 0 2.138.37 2.809 1.133.715.811 1.062 1.918 1.062 3.384v1.298h4.619v-1.298c0-2.557-.654-4.636-1.942-6.181-1.087-1.302-2.541-2.147-4.332-2.521v-3.614h-4.329v3.6c-1.719.33-3.145 1.063-4.251 2.186-1.376 1.396-2.074 3.216-2.074 5.408 0 2.088.638 3.83 1.896 5.179 1.199 1.284 3.145 2.336 5.914 3.206 2.33.807 3.372 1.517 3.835 1.971.561.55.834 1.255.834 2.159 0 1.006-.338 1.761-1.064 2.377-.78.662-1.793.984-3.096.984-1.51 0-2.627-.372-3.414-1.138-.776-.755-1.154-1.811-1.154-3.227v-1.298h-4.636v1.298c0 2.572.752 4.652 2.236 6.183 1.235 1.274 2.887 2.082 4.922 2.408v3.351h4.313v-3.387c1.786-.323 3.262-1.048 4.397-2.161 1.414-1.387 2.132-3.212 2.132-5.424-.001-1.388-.277-2.614-.823-3.644z" fill="#d1d3d4"/><path d="m182.859 128.909c-.545-1.028-1.365-1.921-2.436-2.656-1.01-.692-2.532-1.378-4.652-2.098-2.251-.765-3.287-1.448-3.761-1.887-.555-.514-.825-1.247-.825-2.24 0-1.043.308-1.839.942-2.434.658-.617 1.599-.917 2.878-.917 1.219 0 2.138.371 2.809 1.133.715.811 1.062 1.918 1.062 3.384v1.298h4.619v-1.298c0-2.557-.654-4.636-1.942-6.181-1.087-1.302-2.541-2.147-4.332-2.521v-3.614h-4.329v3.6c-1.719.33-3.145 1.063-4.251 2.186-1.376 1.396-2.074 3.216-2.074 5.408 0 2.088.638 3.83 1.896 5.179 1.199 1.284 3.145 2.336 5.914 3.206 2.33.807 3.372 1.517 3.835 1.971.561.55.834 1.255.834 2.159 0 1.006-.338 1.761-1.064 2.377-.78.662-1.793.984-3.096.984-1.51 0-2.627-.372-3.414-1.138-.776-.755-1.154-1.811-1.154-3.227v-1.298h-4.636v1.298c0 2.572.752 4.652 2.236 6.183 1.235 1.274 2.887 2.082 4.922 2.408v3.351h4.313v-3.387c1.786-.323 3.262-1.048 4.397-2.161 1.414-1.387 2.132-3.212 2.132-5.424-.001-1.388-.277-2.614-.823-3.644z" fill="#fff"/></svg>